<?xml version="1.0" encoding="UTF-8" standalone="no"?>
<!DOCTYPE svg PUBLIC "-//W3C//DTD SVG 1.1//EN"
 "http://www.w3.org/Graphics/SVG/1.1/DTD/svg11.dtd">
<!-- Generated by graphviz version 2.43.0 (0)
 -->
<!-- Title: opam Pages: 1 -->
<svg width="1344pt" height="397pt"
 viewBox="0.00 0.00 1344.00 397.38" xmlns="http://www.w3.org/2000/svg" xmlns:xlink="http://www.w3.org/1999/xlink">
<g id="graph0" class="graph" transform="scale(1 1) rotate(0) translate(4 393.38)">
<title>opam</title>
<polygon fill="white" stroke="transparent" points="-4,4 -4,-393.38 1340,-393.38 1340,4 -4,4"/>
<!-- base&#45;bytes.base -->
<g id="node1" class="node">
<title>base&#45;bytes.base</title>
<polygon fill="#ef7a08" stroke="#ef7a08" points="974,-236 843,-236 843,-200 974,-200 974,-236"/>
<text text-anchor="middle" x="908.5" y="-214.3" font-family="Times,serif" font-size="14.00" fill="#ffffff">base&#45;bytes.base</text>
</g>
<!-- ocamlfind.1.9.6 -->
<g id="node2" class="node">
<title>ocamlfind.1.9.6</title>
<polygon fill="#ef7a08" stroke="#ef7a08" points="1145.5,-263 1018.5,-263 1018.5,-227 1145.5,-227 1145.5,-263"/>
<text text-anchor="middle" x="1082" y="-241.3" font-family="Times,serif" font-size="14.00" fill="#ffffff">ocamlfind.1.9.6</text>
</g>
<!-- base&#45;bytes.base&#45;&gt;ocamlfind.1.9.6 -->
<g id="edge1" class="edge">
<title>base&#45;bytes.base&#45;&gt;ocamlfind.1.9.6</title>
<path fill="none" stroke="#888888" d="M974.34,-228.21C985.38,-229.95 996.91,-231.76 1008.14,-233.53"/>
<polygon fill="#888888" stroke="#888888" points="1007.92,-237.04 1018.34,-235.14 1009.01,-230.12 1007.92,-237.04"/>
</g>
<!-- cppo.1.6.9 -->
<g id="node3" class="node">
<title>cppo.1.6.9</title>
<polygon fill="#ef7a08" stroke="#ef7a08" points="954,-182 863,-182 863,-146 954,-146 954,-182"/>
<text text-anchor="middle" x="908.5" y="-160.3" font-family="Times,serif" font-size="14.00" fill="#ffffff">cppo.1.6.9</text>
</g>
<!-- dune.3.7.0 -->
<g id="node4" class="node">
<title>dune.3.7.0</title>
<polygon fill="#ef7a08" stroke="#ef7a08" points="1128,-113 1036,-113 1036,-77 1128,-77 1128,-113"/>
<text text-anchor="middle" x="1082" y="-91.3" font-family="Times,serif" font-size="14.00" fill="#ffffff">dune.3.7.0</text>
</g>
<!-- cppo.1.6.9&#45;&gt;dune.3.7.0 -->
<g id="edge2" class="edge">
<title>cppo.1.6.9&#45;&gt;dune.3.7.0</title>
<path fill="none" stroke="#888888" d="M954.11,-146.05C976.27,-137.14 1003.23,-126.29 1026.59,-116.89"/>
<polygon fill="#888888" stroke="#888888" points="1028.04,-120.08 1036.02,-113.1 1025.43,-113.58 1028.04,-120.08"/>
</g>
<!-- base&#45;threads.base -->
<g id="node5" class="node">
<title>base&#45;threads.base</title>
<polygon fill="#ef7a08" stroke="#ef7a08" points="1336,-140 1190,-140 1190,-104 1336,-104 1336,-140"/>
<text text-anchor="middle" x="1263" y="-118.3" font-family="Times,serif" font-size="14.00" fill="#ffffff">base&#45;threads.base</text>
</g>
<!-- dune.3.7.0&#45;&gt;base&#45;threads.base -->
<g id="edge3" class="edge">
<title>dune.3.7.0&#45;&gt;base&#45;threads.base</title>
<path fill="none" stroke="#888888" d="M1128.17,-101.81C1143.75,-104.16 1161.74,-106.88 1179.36,-109.54"/>
<polygon fill="#888888" stroke="#888888" points="1179.27,-113.06 1189.68,-111.09 1180.31,-106.14 1179.27,-113.06"/>
</g>
<!-- base&#45;unix.base -->
<g id="node6" class="node">
<title>base&#45;unix.base</title>
<polygon fill="#ef7a08" stroke="#ef7a08" points="1324,-86 1202,-86 1202,-50 1324,-50 1324,-86"/>
<text text-anchor="middle" x="1263" y="-64.3" font-family="Times,serif" font-size="14.00" fill="#ffffff">base&#45;unix.base</text>
</g>
<!-- dune.3.7.0&#45;&gt;base&#45;unix.base -->
<g id="edge4" class="edge">
<title>dune.3.7.0&#45;&gt;base&#45;unix.base</title>
<path fill="none" stroke="#888888" d="M1128.17,-88.19C1147.48,-85.27 1170.48,-81.8 1191.91,-78.57"/>
<polygon fill="#888888" stroke="#888888" points="1192.59,-82.01 1201.96,-77.06 1191.55,-75.09 1192.59,-82.01"/>
</g>
<!-- csexp.1.5.1 -->
<g id="node7" class="node">
<title>csexp.1.5.1</title>
<polygon fill="#ef7a08" stroke="#ef7a08" points="957.5,-90 859.5,-90 859.5,-54 957.5,-54 957.5,-90"/>
<text text-anchor="middle" x="908.5" y="-68.3" font-family="Times,serif" font-size="14.00" fill="#ffffff">csexp.1.5.1</text>
</g>
<!-- csexp.1.5.1&#45;&gt;dune.3.7.0 -->
<g id="edge5" class="edge">
<title>csexp.1.5.1&#45;&gt;dune.3.7.0</title>
<path fill="none" stroke="#888888" d="M957.73,-78.47C978.85,-81.3 1003.76,-84.64 1025.64,-87.58"/>
<polygon fill="#888888" stroke="#888888" points="1025.41,-91.08 1035.78,-88.94 1026.34,-84.14 1025.41,-91.08"/>
</g>
<!-- dune&#45;configurator.3.7.0 -->
<g id="node8" class="node">
<title>dune&#45;configurator.3.7.0</title>
<polygon fill="#ef7a08" stroke="#ef7a08" points="807,-90 623,-90 623,-54 807,-54 807,-90"/>
<text text-anchor="middle" x="715" y="-68.3" font-family="Times,serif" font-size="14.00" fill="#ffffff">dune&#45;configurator.3.7.0</text>
</g>
<!-- dune&#45;configurator.3.7.0&#45;&gt;csexp.1.5.1 -->
<g id="edge6" class="edge">
<title>dune&#45;configurator.3.7.0&#45;&gt;csexp.1.5.1</title>
<path fill="none" stroke="#888888" d="M807.26,-72C821.48,-72 835.82,-72 849.05,-72"/>
<polygon fill="#888888" stroke="#888888" points="849.39,-75.5 859.39,-72 849.39,-68.5 849.39,-75.5"/>
</g>
<!-- lambda&#45;term.3.3.1 -->
<g id="node9" class="node">
<title>lambda&#45;term.3.3.1</title>
<polygon fill="#ef7a08" stroke="#ef7a08" points="283,-239 134,-239 134,-203 283,-203 283,-239"/>
<text text-anchor="middle" x="208.5" y="-217.3" font-family="Times,serif" font-size="14.00" fill="#ffffff">lambda&#45;term.3.3.1</text>
</g>
<!-- zed.3.2.1 -->
<g id="node10" class="node">
<title>zed.3.2.1</title>
<polygon fill="#ef7a08" stroke="#ef7a08" points="421.5,-276 339.5,-276 339.5,-240 421.5,-240 421.5,-276"/>
<text text-anchor="middle" x="380.5" y="-254.3" font-family="Times,serif" font-size="14.00" fill="#ffffff">zed.3.2.1</text>
</g>
<!-- lambda&#45;term.3.3.1&#45;&gt;zed.3.2.1 -->
<g id="edge7" class="edge">
<title>lambda&#45;term.3.3.1&#45;&gt;zed.3.2.1</title>
<path fill="none" stroke="#888888" d="M283.08,-237.01C298.53,-240.38 314.49,-243.85 328.88,-246.98"/>
<polygon fill="#888888" stroke="#888888" points="328.53,-250.49 339.05,-249.2 330.02,-243.65 328.53,-250.49"/>
</g>
<!-- mew_vi.0.5.0 -->
<g id="node11" class="node">
<title>mew_vi.0.5.0</title>
<polygon fill="#ef7a08" stroke="#ef7a08" points="435.5,-149 325.5,-149 325.5,-113 435.5,-113 435.5,-149"/>
<text text-anchor="middle" x="380.5" y="-127.3" font-family="Times,serif" font-size="14.00" fill="#ffffff">mew_vi.0.5.0</text>
</g>
<!-- lambda&#45;term.3.3.1&#45;&gt;mew_vi.0.5.0 -->
<g id="edge8" class="edge">
<title>lambda&#45;term.3.3.1&#45;&gt;mew_vi.0.5.0</title>
<path fill="none" stroke="#888888" d="M239.25,-202.78C261.02,-189.72 291.44,-172.03 319,-158 322.07,-156.44 325.24,-154.87 328.46,-153.33"/>
<polygon fill="#888888" stroke="#888888" points="330.02,-156.46 337.58,-149.04 327.04,-150.13 330.02,-156.46"/>
</g>
<!-- lwt_react.1.2.0 -->
<g id="node12" class="node">
<title>lwt_react.1.2.0</title>
<polygon fill="#ef7a08" stroke="#ef7a08" points="442,-203 319,-203 319,-167 442,-167 442,-203"/>
<text text-anchor="middle" x="380.5" y="-181.3" font-family="Times,serif" font-size="14.00" fill="#ffffff">lwt_react.1.2.0</text>
</g>
<!-- lambda&#45;term.3.3.1&#45;&gt;lwt_react.1.2.0 -->
<g id="edge9" class="edge">
<title>lambda&#45;term.3.3.1&#45;&gt;lwt_react.1.2.0</title>
<path fill="none" stroke="#888888" d="M283.08,-205.42C291.65,-203.6 300.39,-201.75 308.93,-199.95"/>
<polygon fill="#888888" stroke="#888888" points="309.78,-203.34 318.83,-197.85 308.33,-196.49 309.78,-203.34"/>
</g>
<!-- logs.0.7.0 -->
<g id="node13" class="node">
<title>logs.0.7.0</title>
<polygon fill="#ef7a08" stroke="#ef7a08" points="423.5,-377 337.5,-377 337.5,-341 423.5,-341 423.5,-377"/>
<text text-anchor="middle" x="380.5" y="-355.3" font-family="Times,serif" font-size="14.00" fill="#ffffff">logs.0.7.0</text>
</g>
<!-- lambda&#45;term.3.3.1&#45;&gt;logs.0.7.0 -->
<g id="edge10" class="edge">
<title>lambda&#45;term.3.3.1&#45;&gt;logs.0.7.0</title>
<path fill="none" stroke="#888888" d="M231.72,-239.04C261.76,-263.42 315.42,-306.98 349.15,-334.36"/>
<polygon fill="#888888" stroke="#888888" points="347.3,-337.37 357.27,-340.95 351.71,-331.93 347.3,-337.37"/>
</g>
<!-- react.1.2.2 -->
<g id="node14" class="node">
<title>react.1.2.2</title>
<polygon fill="#ef7a08" stroke="#ef7a08" points="579.5,-194 485.5,-194 485.5,-158 579.5,-158 579.5,-194"/>
<text text-anchor="middle" x="532.5" y="-172.3" font-family="Times,serif" font-size="14.00" fill="#ffffff">react.1.2.2</text>
</g>
<!-- zed.3.2.1&#45;&gt;react.1.2.2 -->
<g id="edge11" class="edge">
<title>zed.3.2.1&#45;&gt;react.1.2.2</title>
<path fill="none" stroke="#888888" d="M414.79,-239.8C436.81,-227.76 465.87,-211.88 489.48,-198.97"/>
<polygon fill="#888888" stroke="#888888" points="491.47,-201.87 498.56,-194.01 488.11,-195.73 491.47,-201.87"/>
</g>
<!-- result.1.5 -->
<g id="node15" class="node">
<title>result.1.5</title>
<polygon fill="#ef7a08" stroke="#ef7a08" points="758,-144 672,-144 672,-108 758,-108 758,-144"/>
<text text-anchor="middle" x="715" y="-122.3" font-family="Times,serif" font-size="14.00" fill="#ffffff">result.1.5</text>
</g>
<!-- zed.3.2.1&#45;&gt;result.1.5 -->
<g id="edge12" class="edge">
<title>zed.3.2.1&#45;&gt;result.1.5</title>
<path fill="none" stroke="#888888" d="M421.77,-250.57C473.65,-240.43 560.33,-221.41 587,-203 609.54,-187.44 600.68,-168.86 623,-153 634.46,-144.86 648.39,-139.15 661.86,-135.15"/>
<polygon fill="#888888" stroke="#888888" points="662.81,-138.52 671.55,-132.53 660.99,-131.76 662.81,-138.52"/>
</g>
<!-- uchar.0.0.2 -->
<g id="node16" class="node">
<title>uchar.0.0.2</title>
<polygon fill="#ef7a08" stroke="#ef7a08" points="956.5,-388 860.5,-388 860.5,-352 956.5,-352 956.5,-388"/>
<text text-anchor="middle" x="908.5" y="-366.3" font-family="Times,serif" font-size="14.00" fill="#ffffff">uchar.0.0.2</text>
</g>
<!-- zed.3.2.1&#45;&gt;uchar.0.0.2 -->
<g id="edge13" class="edge">
<title>zed.3.2.1&#45;&gt;uchar.0.0.2</title>
<path fill="none" stroke="#888888" d="M394.37,-276.33C410.88,-298.16 441.77,-333.58 478,-349 602.26,-401.9 765.37,-390.52 850.38,-379.3"/>
<polygon fill="#888888" stroke="#888888" points="850.91,-382.76 860.35,-377.93 849.96,-375.82 850.91,-382.76"/>
</g>
<!-- uuseg.15.0.0 -->
<g id="node17" class="node">
<title>uuseg.15.0.0</title>
<polygon fill="#ef7a08" stroke="#ef7a08" points="587,-286 478,-286 478,-250 587,-250 587,-286"/>
<text text-anchor="middle" x="532.5" y="-264.3" font-family="Times,serif" font-size="14.00" fill="#ffffff">uuseg.15.0.0</text>
</g>
<!-- zed.3.2.1&#45;&gt;uuseg.15.0.0 -->
<g id="edge14" class="edge">
<title>zed.3.2.1&#45;&gt;uuseg.15.0.0</title>
<path fill="none" stroke="#888888" d="M421.7,-260.68C435.86,-261.62 452.16,-262.71 467.78,-263.75"/>
<polygon fill="#888888" stroke="#888888" points="467.72,-267.26 477.93,-264.43 468.18,-260.27 467.72,-267.26"/>
</g>
<!-- uutf.1.0.3 -->
<g id="node18" class="node">
<title>uutf.1.0.3</title>
<polygon fill="#ef7a08" stroke="#ef7a08" points="575.5,-340 489.5,-340 489.5,-304 575.5,-304 575.5,-340"/>
<text text-anchor="middle" x="532.5" y="-318.3" font-family="Times,serif" font-size="14.00" fill="#ffffff">uutf.1.0.3</text>
</g>
<!-- zed.3.2.1&#45;&gt;uutf.1.0.3 -->
<g id="edge15" class="edge">
<title>zed.3.2.1&#45;&gt;uutf.1.0.3</title>
<path fill="none" stroke="#888888" d="M421.7,-275.15C439.59,-282.78 460.88,-291.87 479.92,-299.99"/>
<polygon fill="#888888" stroke="#888888" points="478.79,-303.31 489.36,-304.02 481.53,-296.88 478.79,-303.31"/>
</g>
<!-- mew_vi.0.5.0&#45;&gt;react.1.2.2 -->
<g id="edge17" class="edge">
<title>mew_vi.0.5.0&#45;&gt;react.1.2.2</title>
<path fill="none" stroke="#888888" d="M435.65,-147.25C448.63,-151.14 462.5,-155.3 475.56,-159.22"/>
<polygon fill="#888888" stroke="#888888" points="474.76,-162.63 485.35,-162.15 476.78,-155.93 474.76,-162.63"/>
</g>
<!-- mew.0.1.0 -->
<g id="node20" class="node">
<title>mew.0.1.0</title>
<polygon fill="#ef7a08" stroke="#ef7a08" points="577,-86 488,-86 488,-50 577,-50 577,-86"/>
<text text-anchor="middle" x="532.5" y="-64.3" font-family="Times,serif" font-size="14.00" fill="#ffffff">mew.0.1.0</text>
</g>
<!-- mew_vi.0.5.0&#45;&gt;mew.0.1.0 -->
<g id="edge18" class="edge">
<title>mew_vi.0.5.0&#45;&gt;mew.0.1.0</title>
<path fill="none" stroke="#888888" d="M424.48,-112.95C441.43,-105.83 461.06,-97.58 478.85,-90.11"/>
<polygon fill="#888888" stroke="#888888" points="480.65,-93.16 488.51,-86.06 477.93,-86.7 480.65,-93.16"/>
</g>
<!-- lwt_react.1.2.0&#45;&gt;react.1.2.2 -->
<g id="edge19" class="edge">
<title>lwt_react.1.2.0&#45;&gt;react.1.2.2</title>
<path fill="none" stroke="#888888" d="M442.08,-181.37C453.05,-180.71 464.44,-180.02 475.28,-179.37"/>
<polygon fill="#888888" stroke="#888888" points="475.69,-182.85 485.46,-178.76 475.27,-175.87 475.69,-182.85"/>
</g>
<!-- lwt.5.6.1 -->
<g id="node21" class="node">
<title>lwt.5.6.1</title>
<polygon fill="#ef7a08" stroke="#ef7a08" points="572.5,-140 492.5,-140 492.5,-104 572.5,-104 572.5,-140"/>
<text text-anchor="middle" x="532.5" y="-118.3" font-family="Times,serif" font-size="14.00" fill="#ffffff">lwt.5.6.1</text>
</g>
<!-- lwt_react.1.2.0&#45;&gt;lwt.5.6.1 -->
<g id="edge20" class="edge">
<title>lwt_react.1.2.0&#45;&gt;lwt.5.6.1</title>
<path fill="none" stroke="#888888" d="M424.48,-166.95C442.78,-159.26 464.2,-150.27 483.05,-142.35"/>
<polygon fill="#888888" stroke="#888888" points="484.49,-145.54 492.36,-138.44 481.78,-139.09 484.49,-145.54"/>
</g>
<!-- topkg.1.0.7 -->
<g id="node19" class="node">
<title>topkg.1.0.7</title>
<polygon fill="#ef7a08" stroke="#ef7a08" points="957.5,-310 859.5,-310 859.5,-274 957.5,-274 957.5,-310"/>
<text text-anchor="middle" x="908.5" y="-288.3" font-family="Times,serif" font-size="14.00" fill="#ffffff">topkg.1.0.7</text>
</g>
<!-- logs.0.7.0&#45;&gt;topkg.1.0.7 -->
<g id="edge23" class="edge">
<title>logs.0.7.0&#45;&gt;topkg.1.0.7</title>
<path fill="none" stroke="#888888" d="M423.64,-358.42C500.58,-356.67 668.64,-349.59 807,-321 820.88,-318.13 835.64,-314.32 849.45,-310.4"/>
<polygon fill="#888888" stroke="#888888" points="850.69,-313.69 859.32,-307.54 848.74,-306.96 850.69,-313.69"/>
</g>
<!-- react.1.2.2&#45;&gt;topkg.1.0.7 -->
<g id="edge16" class="edge">
<title>react.1.2.2&#45;&gt;topkg.1.0.7</title>
<path fill="none" stroke="#888888" d="M579.59,-193.25C593.43,-198.08 608.73,-203.07 623,-207 703.51,-229.16 727.75,-218.69 807,-245 826.43,-251.45 847.06,-260.65 864.53,-269.2"/>
<polygon fill="#888888" stroke="#888888" points="863.38,-272.54 873.89,-273.87 866.5,-266.27 863.38,-272.54"/>
</g>
<!-- result.1.5&#45;&gt;dune.3.7.0 -->
<g id="edge31" class="edge">
<title>result.1.5&#45;&gt;dune.3.7.0</title>
<path fill="none" stroke="#888888" d="M758.23,-122.41C824.36,-116.8 952.38,-105.92 1025.75,-99.69"/>
<polygon fill="#888888" stroke="#888888" points="1026.07,-103.18 1035.73,-98.84 1025.47,-96.2 1026.07,-103.18"/>
</g>
<!-- ocamlbuild.0.14.2 -->
<g id="node23" class="node">
<title>ocamlbuild.0.14.2</title>
<polygon fill="#ef7a08" stroke="#ef7a08" points="1154,-330 1010,-330 1010,-294 1154,-294 1154,-330"/>
<text text-anchor="middle" x="1082" y="-308.3" font-family="Times,serif" font-size="14.00" fill="#ffffff">ocamlbuild.0.14.2</text>
</g>
<!-- uchar.0.0.2&#45;&gt;ocamlbuild.0.14.2 -->
<g id="edge32" class="edge">
<title>uchar.0.0.2&#45;&gt;ocamlbuild.0.14.2</title>
<path fill="none" stroke="#888888" d="M956.82,-354C975.65,-347.63 997.59,-340.21 1017.76,-333.39"/>
<polygon fill="#888888" stroke="#888888" points="1019.14,-336.62 1027.49,-330.1 1016.89,-329.99 1019.14,-336.62"/>
</g>
<!-- uucp.15.0.0 -->
<g id="node26" class="node">
<title>uucp.15.0.0</title>
<polygon fill="#ef7a08" stroke="#ef7a08" points="765.5,-290 664.5,-290 664.5,-254 765.5,-254 765.5,-290"/>
<text text-anchor="middle" x="715" y="-268.3" font-family="Times,serif" font-size="14.00" fill="#ffffff">uucp.15.0.0</text>
</g>
<!-- uuseg.15.0.0&#45;&gt;uucp.15.0.0 -->
<g id="edge35" class="edge">
<title>uuseg.15.0.0&#45;&gt;uucp.15.0.0</title>
<path fill="none" stroke="#888888" d="M587.17,-269.19C608.25,-269.66 632.54,-270.19 654.18,-270.67"/>
<polygon fill="#888888" stroke="#888888" points="654.17,-274.17 664.24,-270.9 654.32,-267.18 654.17,-274.17"/>
</g>
<!-- uutf.1.0.3&#45;&gt;topkg.1.0.7 -->
<g id="edge36" class="edge">
<title>uutf.1.0.3&#45;&gt;topkg.1.0.7</title>
<path fill="none" stroke="#888888" d="M575.68,-318.62C642.55,-313.25 773.08,-302.78 848.97,-296.7"/>
<polygon fill="#888888" stroke="#888888" points="849.61,-300.15 859.3,-295.87 849.05,-293.18 849.61,-300.15"/>
</g>
<!-- topkg.1.0.7&#45;&gt;ocamlfind.1.9.6 -->
<g id="edge24" class="edge">
<title>topkg.1.0.7&#45;&gt;ocamlfind.1.9.6</title>
<path fill="none" stroke="#888888" d="M957.73,-278.78C973.46,-274.47 991.3,-269.58 1008.42,-264.89"/>
<polygon fill="#888888" stroke="#888888" points="1009.67,-268.18 1018.39,-262.16 1007.82,-261.43 1009.67,-268.18"/>
</g>
<!-- topkg.1.0.7&#45;&gt;ocamlbuild.0.14.2 -->
<g id="edge25" class="edge">
<title>topkg.1.0.7&#45;&gt;ocamlbuild.0.14.2</title>
<path fill="none" stroke="#888888" d="M957.73,-297.62C970.72,-299.14 985.15,-300.82 999.42,-302.49"/>
<polygon fill="#888888" stroke="#888888" points="999.43,-306.01 1009.77,-303.69 1000.24,-299.06 999.43,-306.01"/>
</g>
<!-- mew.0.1.0&#45;&gt;result.1.5 -->
<g id="edge29" class="edge">
<title>mew.0.1.0&#45;&gt;result.1.5</title>
<path fill="none" stroke="#888888" d="M577.07,-83.53C591.63,-88.6 607.97,-94.17 623,-99 635.63,-103.06 649.31,-107.23 662.13,-111.05"/>
<polygon fill="#888888" stroke="#888888" points="661.16,-114.41 671.74,-113.89 663.15,-107.7 661.16,-114.41"/>
</g>
<!-- trie.1.0.0 -->
<g id="node24" class="node">
<title>trie.1.0.0</title>
<polygon fill="#ef7a08" stroke="#ef7a08" points="756.5,-36 673.5,-36 673.5,0 756.5,0 756.5,-36"/>
<text text-anchor="middle" x="715" y="-14.3" font-family="Times,serif" font-size="14.00" fill="#ffffff">trie.1.0.0</text>
</g>
<!-- mew.0.1.0&#45;&gt;trie.1.0.0 -->
<g id="edge28" class="edge">
<title>mew.0.1.0&#45;&gt;trie.1.0.0</title>
<path fill="none" stroke="#888888" d="M577.19,-55.9C603.31,-48.66 636.58,-39.45 663.77,-31.91"/>
<polygon fill="#888888" stroke="#888888" points="664.79,-35.26 673.49,-29.22 662.92,-28.52 664.79,-35.26"/>
</g>
<!-- lwt.5.6.1&#45;&gt;dune&#45;configurator.3.7.0 -->
<g id="edge21" class="edge">
<title>lwt.5.6.1&#45;&gt;dune&#45;configurator.3.7.0</title>
<path fill="none" stroke="#888888" d="M572.67,-111.15C592.17,-105.75 616.42,-99.03 639.3,-92.69"/>
<polygon fill="#888888" stroke="#888888" points="640.3,-96.05 649,-90 638.43,-89.3 640.3,-96.05"/>
</g>
<!-- ocplib&#45;endian.1.2 -->
<g id="node22" class="node">
<title>ocplib&#45;endian.1.2</title>
<polygon fill="#ef7a08" stroke="#ef7a08" points="784.5,-198 645.5,-198 645.5,-162 784.5,-162 784.5,-198"/>
<text text-anchor="middle" x="715" y="-176.3" font-family="Times,serif" font-size="14.00" fill="#ffffff">ocplib&#45;endian.1.2</text>
</g>
<!-- lwt.5.6.1&#45;&gt;ocplib&#45;endian.1.2 -->
<g id="edge22" class="edge">
<title>lwt.5.6.1&#45;&gt;ocplib&#45;endian.1.2</title>
<path fill="none" stroke="#888888" d="M572.58,-135.96C588.21,-141.44 606.41,-147.67 623,-153 629.07,-154.95 635.39,-156.93 641.74,-158.88"/>
<polygon fill="#888888" stroke="#888888" points="641.13,-162.36 651.72,-161.93 643.17,-155.66 641.13,-162.36"/>
</g>
<!-- ocplib&#45;endian.1.2&#45;&gt;base&#45;bytes.base -->
<g id="edge26" class="edge">
<title>ocplib&#45;endian.1.2&#45;&gt;base&#45;bytes.base</title>
<path fill="none" stroke="#888888" d="M784.59,-193.61C800.33,-196.73 817.12,-200.07 833.09,-203.23"/>
<polygon fill="#888888" stroke="#888888" points="832.41,-206.67 842.9,-205.18 833.77,-199.8 832.41,-206.67"/>
</g>
<!-- ocplib&#45;endian.1.2&#45;&gt;cppo.1.6.9 -->
<g id="edge27" class="edge">
<title>ocplib&#45;endian.1.2&#45;&gt;cppo.1.6.9</title>
<path fill="none" stroke="#888888" d="M784.59,-174.27C807.01,-172.4 831.58,-170.34 852.83,-168.57"/>
<polygon fill="#888888" stroke="#888888" points="853.29,-172.04 862.97,-167.72 852.71,-165.07 853.29,-172.04"/>
</g>
<!-- trie.1.0.0&#45;&gt;dune.3.7.0 -->
<g id="edge30" class="edge">
<title>trie.1.0.0&#45;&gt;dune.3.7.0</title>
<path fill="none" stroke="#888888" d="M756.55,-18.11C808.02,-19.19 899.14,-24.23 974,-45 996.86,-51.34 1020.9,-62.16 1040.4,-72.12"/>
<polygon fill="#888888" stroke="#888888" points="1038.81,-75.24 1049.3,-76.76 1042.05,-69.03 1038.81,-75.24"/>
</g>
<!-- utop.2.11.0 -->
<g id="node25" class="node">
<title>utop.2.11.0</title>
<polygon fill="#ef7a08" stroke="#ef7a08" points="98,-239 0,-239 0,-203 98,-203 98,-239"/>
<text text-anchor="middle" x="49" y="-217.3" font-family="Times,serif" font-size="14.00" fill="#ffffff">utop.2.11.0</text>
</g>
<!-- utop.2.11.0&#45;&gt;lambda&#45;term.3.3.1 -->
<g id="edge33" class="edge">
<title>utop.2.11.0&#45;&gt;lambda&#45;term.3.3.1</title>
<path fill="none" stroke="#888888" d="M98.11,-221C106.24,-221 114.88,-221 123.61,-221"/>
<polygon fill="#888888" stroke="#888888" points="123.87,-224.5 133.87,-221 123.87,-217.5 123.87,-224.5"/>
</g>
<!-- uucp.15.0.0&#45;&gt;topkg.1.0.7 -->
<g id="edge34" class="edge">
<title>uucp.15.0.0&#45;&gt;topkg.1.0.7</title>
<path fill="none" stroke="#888888" d="M765.81,-277.2C791.36,-279.87 822.63,-283.14 849.29,-285.92"/>
<polygon fill="#888888" stroke="#888888" points="848.95,-289.4 859.26,-286.96 849.68,-282.44 848.95,-289.4"/>
</g>
</g>
</svg>
